<svg width="800" height="450" xmlns="http://www.w3.org/2000/svg">
  <rect width="100%" height="100%" fill="#ffebee" />
  <text x="400" y="50" font-family="sans-serif" font-size="28" font-weight="bold" text-anchor="middle" fill="#c62828">向いていないかも？逆引きチェックと対策</text>
  
  <!-- Check 1 -->
  <rect x="50" y="100" width="340" height="120" rx="10" fill="white" stroke="#ef5350" stroke-width="2" />
  <text x="220" y="130" font-family="sans-serif" font-size="18" font-weight="bold" text-anchor="middle" fill="#c62828">潔癖症である</text>
  <line x1="70" y1="145" x2="370" y2="145" stroke="#ffcdd2" stroke-width="2" />
  <text x="220" y="170" font-family="sans-serif" font-size="14" text-anchor="middle" fill="#333">対策：手袋・マスクの着用徹底</text>
  <text x="220" y="190" font-family="sans-serif" font-size="14" text-anchor="middle" fill="#333">「仕事」と割り切る意識</text>

  <!-- Check 2 -->
  <rect x="410" y="100" width="340" height="120" rx="10" fill="white" stroke="#ef5350" stroke-width="2" />
  <text x="580" y="130" font-family="sans-serif" font-size="18" font-weight="bold" text-anchor="middle" fill="#c62828">体力に自信がない</text>
  <line x1="430" y1="145" x2="730" y2="145" stroke="#ffcdd2" stroke-width="2" />
  <text x="580" y="170" font-family="sans-serif" font-size="14" text-anchor="middle" fill="#333">対策：ボディメカニクスの活用</text>
  <text x="580" y="190" font-family="sans-serif" font-size="14" text-anchor="middle" fill="#333">無理せず周囲に協力依頼</text>

  <!-- Check 3 -->
  <rect x="50" y="240" width="340" height="120" rx="10" fill="white" stroke="#ef5350" stroke-width="2" />
  <text x="220" y="270" font-family="sans-serif" font-size="18" font-weight="bold" text-anchor="middle" fill="#c62828">コミュニケーションが苦手</text>
  <line x1="70" y1="285" x2="370" y2="285" stroke="#ffcdd2" stroke-width="2" />
  <text x="220" y="310" font-family="sans-serif" font-size="14" text-anchor="middle" fill="#333">対策：まずは「挨拶」から</text>
  <text x="220" y="330" font-family="sans-serif" font-size="14" text-anchor="middle" fill="#333">聞き役に徹するのもOK</text>

  <!-- Check 4 -->
  <rect x="410" y="240" width="340" height="120" rx="10" fill="white" stroke="#ef5350" stroke-width="2" />
  <text x="580" y="270" font-family="sans-serif" font-size="18" font-weight="bold" text-anchor="middle" fill="#c62828">不規則な生活が辛い</text>
  <line x1="430" y1="285" x2="730" y2="285" stroke="#ffcdd2" stroke-width="2" />
  <text x="580" y="310" font-family="sans-serif" font-size="14" text-anchor="middle" fill="#333">対策：日勤のみの求人を探す</text>
  <text x="580" y="330" font-family="sans-serif" font-size="14" text-anchor="middle" fill="#333">外来・クリニックを選ぶ</text>

  <text x="400" y="420" font-family="sans-serif" font-size="14" text-anchor="middle" fill="#888">© ProReNata</text>
</svg>