<svg width="800" height="450" xmlns="http://www.w3.org/2000/svg">
  <rect width="100%" height="100%" fill="#f1f8e9" />
  <text x="400" y="50" font-family="sans-serif" font-size="28" font-weight="bold" text-anchor="middle" fill="#33691e">看護助手資格取得の3大メリット</text>
  
  <!-- Merit 1 -->
  <g transform="translate(50, 100)">
    <polygon points="110,10 210,60 110,110 10,60" fill="white" stroke="#7cb342" stroke-width="2" />
    <text x="110" y="55" font-family="sans-serif" font-size="18" font-weight="bold" text-anchor="middle" fill="#33691e">給与アップ</text>
    <text x="110" y="80" font-family="sans-serif" font-size="14" text-anchor="middle" fill="#555">資格手当の支給</text>
  </g>

  <!-- Merit 2 -->
  <g transform="translate(290, 100)">
    <polygon points="110,10 210,60 110,110 10,60" fill="white" stroke="#7cb342" stroke-width="2" />
    <text x="110" y="55" font-family="sans-serif" font-size="18" font-weight="bold" text-anchor="middle" fill="#33691e">採用有利</text>
    <text x="110" y="80" font-family="sans-serif" font-size="14" text-anchor="middle" fill="#555">即戦力として評価</text>
  </g>

  <!-- Merit 3 -->
  <g transform="translate(530, 100)">
    <polygon points="110,10 210,60 110,110 10,60" fill="white" stroke="#7cb342" stroke-width="2" />
    <text x="110" y="55" font-family="sans-serif" font-size="18" font-weight="bold" text-anchor="middle" fill="#33691e">自信がつく</text>
    <text x="110" y="80" font-family="sans-serif" font-size="14" text-anchor="middle" fill="#555">正しい知識でケア</text>
  </g>

  <!-- Arrow Up -->
  <polygon points="400,230 450,300 350,300" fill="#8bc34a" />
  <rect x="375" y="300" width="50" height="50" fill="#8bc34a" />
  
  <text x="400" y="380" font-family="sans-serif" font-size="20" font-weight="bold" text-anchor="middle" fill="#33691e">キャリアアップの第一歩！</text>

  <text x="400" y="420" font-family="sans-serif" font-size="14" text-anchor="middle" fill="#888">© ProReNata</text>
</svg>