<svg width="800" height="450" xmlns="http://www.w3.org/2000/svg">
  <rect width="100%" height="100%" fill="#e3f2fd" />
  <text x="400" y="50" font-family="sans-serif" font-size="28" font-weight="bold" text-anchor="middle" fill="#1565c0">働きながら学ぶ！1週間のスケジュール例</text>
  
  <!-- Weekdays -->
  <rect x="50" y="100" width="450" height="200" rx="10" fill="white" stroke="#2196f3" stroke-width="2" />
  <text x="275" y="140" font-family="sans-serif" font-size="20" font-weight="bold" text-anchor="middle" fill="#1565c0">平日（月〜金）</text>
  
  <line x1="100" y1="170" x2="400" y2="170" stroke="#bbdefb" stroke-width="2" />
  <text x="100" y="200" font-family="sans-serif" font-size="16" fill="#333">08:30 - 12:30</text>
  <text x="220" y="200" font-family="sans-serif" font-size="16" font-weight="bold" fill="#333">病院勤務（午前）</text>
  
  <line x1="100" y1="220" x2="400" y2="220" stroke="#bbdefb" stroke-width="2" />
  <text x="100" y="250" font-family="sans-serif" font-size="16" fill="#333">13:30 - 16:30</text>
  <text x="220" y="250" font-family="sans-serif" font-size="16" font-weight="bold" fill="#1565c0">看護学校（授業）</text>
  
  <line x1="100" y1="270" x2="400" y2="270" stroke="#bbdefb" stroke-width="2" />
  <text x="100" y="300" font-family="sans-serif" font-size="16" fill="#333">18:00 - 20:00</text>
  <text x="220" y="300" font-family="sans-serif" font-size="16" fill="#555">自習・課題</text>

  <!-- Weekend -->
  <rect x="530" y="100" width="220" height="200" rx="10" fill="white" stroke="#f44336" stroke-width="2" />
  <text x="640" y="140" font-family="sans-serif" font-size="20" font-weight="bold" text-anchor="middle" fill="#c62828">土日・祝日</text>
  <text x="640" y="180" font-family="sans-serif" font-size="16" text-anchor="middle" fill="#333">完全オフ</text>
  <text x="640" y="210" font-family="sans-serif" font-size="14" text-anchor="middle" fill="#555">または</text>
  <text x="640" y="240" font-family="sans-serif" font-size="16" text-anchor="middle" fill="#333">アルバイト</text>
  <text x="640" y="270" font-family="sans-serif" font-size="14" text-anchor="middle" fill="#555">（試験前は勉強）</text>

  <rect x="100" y="330" width="600" height="60" rx="5" fill="#bbdefb" />
  <text x="400" y="365" font-family="sans-serif" font-size="18" font-weight="bold" text-anchor="middle" fill="#0d47a1">半日勤務＋半日学校のスタイルが一般的です</text>

  <text x="400" y="420" font-family="sans-serif" font-size="14" text-anchor="middle" fill="#888">© ProReNata</text>
</svg>