<svg width="800" height="450" xmlns="http://www.w3.org/2000/svg">
  <rect width="100%" height="100%" fill="#fff3e0" />
  <text x="400" y="50" font-family="sans-serif" font-size="28" font-weight="bold" text-anchor="middle" fill="#e65100">看護助手のストレス解消法ランキング TOP5</text>
  
  <!-- Rank 1 -->
  <rect x="50" y="100" width="700" height="50" rx="5" fill="#ffcc80" />
  <text x="80" y="135" font-family="sans-serif" font-size="24" font-weight="bold" fill="#e65100">1位</text>
  <text x="150" y="135" font-family="sans-serif" font-size="20" font-weight="bold" fill="#333">美味しいものを食べる・飲む</text>
  <rect x="550" y="110" width="180" height="30" fill="#ffe0b2" />
  <rect x="550" y="110" width="160" height="30" fill="#ff9800" />
  <text x="740" y="132" font-family="sans-serif" font-size="14" fill="#333">45%</text>

  <!-- Rank 2 -->
  <rect x="50" y="160" width="700" height="50" rx="5" fill="#ffe0b2" />
  <text x="80" y="195" font-family="sans-serif" font-size="24" font-weight="bold" fill="#ef6c00">2位</text>
  <text x="150" y="195" font-family="sans-serif" font-size="20" font-weight="bold" fill="#333">睡眠・休息をたっぷりとる</text>
  <rect x="550" y="170" width="180" height="30" fill="#fff3e0" />
  <rect x="550" y="170" width="120" height="30" fill="#ffb74d" />
  <text x="740" y="192" font-family="sans-serif" font-size="14" fill="#333">30%</text>

  <!-- Rank 3 -->
  <rect x="50" y="220" width="700" height="50" rx="5" fill="#fff3e0" />
  <text x="80" y="255" font-family="sans-serif" font-size="24" font-weight="bold" fill="#f57c00">3位</text>
  <text x="150" y="255" font-family="sans-serif" font-size="20" font-weight="bold" fill="#333">趣味に没頭する（推し活など）</text>
  <rect x="550" y="230" width="180" height="30" fill="#fff8e1" />
  <rect x="550" y="230" width="80" height="30" fill="#ffcc80" />
  <text x="740" y="252" font-family="sans-serif" font-size="14" fill="#333">15%</text>

  <!-- Rank 4 -->
  <text x="150" y="300" font-family="sans-serif" font-size="18" fill="#555">4位：友人と話す・愚痴る</text>
  <!-- Rank 5 -->
  <text x="150" y="330" font-family="sans-serif" font-size="18" fill="#555">5位：運動・マッサージ</text>

  <rect x="100" y="360" width="600" height="50" rx="5" fill="#ffecb3" />
  <text x="400" y="395" font-family="sans-serif" font-size="16" font-weight="bold" text-anchor="middle" fill="#f57f17">「オンオフの切り替え」が長く続けるコツです！</text>

  <text x="400" y="430" font-family="sans-serif" font-size="14" text-anchor="middle" fill="#888">© ProReNata</text>
</svg>