<svg width="800" height="450" xmlns="http://www.w3.org/2000/svg">
  <rect width="100%" height="100%" fill="#e1f5fe" />
  <text x="400" y="50" font-family="sans-serif" font-size="28" font-weight="bold" text-anchor="middle" fill="#0277bd">看護助手の用語マスターマップ</text>
  
  <!-- Center -->
  <circle cx="400" cy="225" r="70" fill="white" stroke="#03a9f4" stroke-width="3" />
  <text x="400" y="230" font-family="sans-serif" font-size="20" font-weight="bold" text-anchor="middle" fill="#0277bd">基本用語</text>

  <!-- Branch 1 -->
  <rect x="100" y="100" width="180" height="80" rx="10" fill="white" stroke="#03a9f4" />
  <text x="190" y="130" font-family="sans-serif" font-size="16" font-weight="bold" text-anchor="middle" fill="#0277bd">ADL</text>
  <text x="190" y="155" font-family="sans-serif" font-size="14" text-anchor="middle" fill="#555">日常生活動作</text>
  <line x1="280" y1="140" x2="350" y2="190" stroke="#03a9f4" stroke-width="2" />

  <!-- Branch 2 -->
  <rect x="520" y="100" width="180" height="80" rx="10" fill="white" stroke="#03a9f4" />
  <text x="610" y="130" font-family="sans-serif" font-size="16" font-weight="bold" text-anchor="middle" fill="#0277bd">QOL</text>
  <text x="610" y="155" font-family="sans-serif" font-size="14" text-anchor="middle" fill="#555">生活の質</text>
  <line x1="520" y1="140" x2="450" y2="190" stroke="#03a9f4" stroke-width="2" />

  <!-- Branch 3 -->
  <rect x="100" y="270" width="180" height="80" rx="10" fill="white" stroke="#03a9f4" />
  <text x="190" y="300" font-family="sans-serif" font-size="16" font-weight="bold" text-anchor="middle" fill="#0277bd">バイタル</text>
  <text x="190" y="325" font-family="sans-serif" font-size="14" text-anchor="middle" fill="#555">生命兆候</text>
  <line x1="280" y1="310" x2="350" y2="260" stroke="#03a9f4" stroke-width="2" />

  <!-- Branch 4 -->
  <rect x="520" y="270" width="180" height="80" rx="10" fill="white" stroke="#03a9f4" />
  <text x="610" y="300" font-family="sans-serif" font-size="16" font-weight="bold" text-anchor="middle" fill="#0277bd">カンファレンス</text>
  <text x="610" y="325" font-family="sans-serif" font-size="14" text-anchor="middle" fill="#555">会議・打ち合わせ</text>
  <line x1="520" y1="310" x2="450" y2="260" stroke="#03a9f4" stroke-width="2" />

  <text x="400" y="420" font-family="sans-serif" font-size="14" text-anchor="middle" fill="#888">© ProReNata</text>
</svg>