<svg width="800" height="450" xmlns="http://www.w3.org/2000/svg">
  <rect width="100%" height="100%" fill="#e8f5e9" />
  <text x="400" y="50" font-family="sans-serif" font-size="28" font-weight="bold" text-anchor="middle" fill="#1b5e20">手術室看護助手の主な業務フロー</text>
  
  <!-- Step 1 -->
  <rect x="50" y="150" width="150" height="150" rx="10" fill="white" stroke="#43a047" stroke-width="2" />
  <text x="125" y="190" font-family="sans-serif" font-size="18" font-weight="bold" text-anchor="middle" fill="#1b5e20">術前準備</text>
  <text x="125" y="220" font-family="sans-serif" font-size="14" text-anchor="middle" fill="#555">・器械出し</text>
  <text x="125" y="240" font-family="sans-serif" font-size="14" text-anchor="middle" fill="#555">・部屋の清掃</text>
  <text x="125" y="260" font-family="sans-serif" font-size="14" text-anchor="middle" fill="#555">・物品補充</text>

  <!-- Arrow 1 -->
  <polygon points="210,225 240,225 240,200 270,225 240,250 240,225" fill="#66bb6a" />

  <!-- Step 2 -->
  <rect x="280" y="150" width="150" height="150" rx="10" fill="white" stroke="#43a047" stroke-width="2" />
  <text x="355" y="190" font-family="sans-serif" font-size="18" font-weight="bold" text-anchor="middle" fill="#1b5e20">術中サポート</text>
  <text x="355" y="220" font-family="sans-serif" font-size="14" text-anchor="middle" fill="#555">・検体搬送</text>
  <text x="355" y="240" font-family="sans-serif" font-size="14" text-anchor="middle" fill="#555">・環境整備</text>
  <text x="355" y="260" font-family="sans-serif" font-size="14" text-anchor="middle" fill="#555">・外回り補助</text>

  <!-- Arrow 2 -->
  <polygon points="440,225 470,225 470,200 500,225 470,250 470,225" fill="#66bb6a" />

  <!-- Step 3 -->
  <rect x="510" y="150" width="150" height="150" rx="10" fill="white" stroke="#43a047" stroke-width="2" />
  <text x="585" y="190" font-family="sans-serif" font-size="18" font-weight="bold" text-anchor="middle" fill="#1b5e20">術後片付け</text>
  <text x="585" y="220" font-family="sans-serif" font-size="14" text-anchor="middle" fill="#555">・器械洗浄</text>
  <text x="585" y="240" font-family="sans-serif" font-size="14" text-anchor="middle" fill="#555">・ゴミ回収</text>
  <text x="585" y="260" font-family="sans-serif" font-size="14" text-anchor="middle" fill="#555">・次症例準備</text>

  <rect x="100" y="350" width="600" height="50" rx="5" fill="#c8e6c9" />
  <text x="400" y="380" font-family="sans-serif" font-size="16" font-weight="bold" text-anchor="middle" fill="#1b5e20">清潔・不潔の区別が最も重要なポイントです！</text>

  <text x="400" y="420" font-family="sans-serif" font-size="14" text-anchor="middle" fill="#888">© ProReNata</text>
</svg>