<svg width="800" height="450" xmlns="http://www.w3.org/2000/svg">
  <rect width="100%" height="100%" fill="#f3e5f5" />
  <text x="400" y="50" font-family="sans-serif" font-size="28" font-weight="bold" text-anchor="middle" fill="#7b1fa2">年収アップシミュレーション（例）</text>
  
  <!-- Axis -->
  <line x1="100" y1="350" x2="700" y2="350" stroke="#333" stroke-width="2" />
  <line x1="100" y1="350" x2="100" y2="100" stroke="#333" stroke-width="2" />

  <!-- Bar 1: Start -->
  <rect x="150" y="250" width="100" height="100" fill="#e1bee7" />
  <text x="200" y="240" font-family="sans-serif" font-size="16" font-weight="bold" text-anchor="middle" fill="#4a148c">280万円</text>
  <text x="200" y="380" font-family="sans-serif" font-size="16" font-weight="bold" text-anchor="middle" fill="#333">1年目</text>
  <text x="200" y="400" font-family="sans-serif" font-size="14" text-anchor="middle" fill="#555">無資格</text>

  <!-- Arrow -->
  <polygon points="270,300 310,300 310,280 340,300 310,320 310,300" fill="#ab47bc" />

  <!-- Bar 2: 3 Years -->
  <rect x="350" y="200" width="100" height="150" fill="#ba68c8" />
  <text x="400" y="190" font-family="sans-serif" font-size="16" font-weight="bold" text-anchor="middle" fill="#4a148c">320万円</text>
  <text x="400" y="380" font-family="sans-serif" font-size="16" font-weight="bold" text-anchor="middle" fill="#333">3年目</text>
  <text x="400" y="400" font-family="sans-serif" font-size="14" text-anchor="middle" fill="#555">介護福祉士</text>

  <!-- Arrow -->
  <polygon points="470,270 510,270 510,250 540,270 510,290 510,270" fill="#ab47bc" />

  <!-- Bar 3: Nurse -->
  <rect x="550" y="100" width="100" height="250" fill="#8e24aa" />
  <text x="600" y="90" font-family="sans-serif" font-size="16" font-weight="bold" text-anchor="middle" fill="#4a148c">450万円~</text>
  <text x="600" y="380" font-family="sans-serif" font-size="16" font-weight="bold" text-anchor="middle" fill="#333">5年目以降</text>
  <text x="600" y="400" font-family="sans-serif" font-size="14" text-anchor="middle" fill="#555">看護師資格</text>

  <text x="400" y="430" font-family="sans-serif" font-size="14" text-anchor="middle" fill="#888">※金額は目安です © ProReNata</text>
</svg>